<?xml version="1.0" encoding="UTF-8" standalone="no"?>
<svg width="58px" height="54px" viewBox="0 0 58 54" version="1.1" xmlns="http://www.w3.org/2000/svg" xmlns:xlink="http://www.w3.org/1999/xlink" xmlns:sketch="http://www.bohemiancoding.com/sketch/ns">
    <!-- Generator: Sketch 3.4 (15575) - http://www.bohemiancoding.com/sketch -->
    <title>Shape</title>
    <desc>Created with Sketch.</desc>
    <defs></defs>
    <g id="Page-1" stroke="none" stroke-width="1" fill="none" fill-rule="evenodd" sketch:type="MSPage">
        <path d="M55.4,25.7 C55.4,11.5 44,0 29.9,0 C15.9,0 4.4,11.5 4.4,25.7 C4.4,39.9 15.8,51.4 29.9,51.4 C44,51.3 55.4,39.8 55.4,25.7 L55.4,25.7 Z M50.6,37 L31.3,37 C31.4,36.7 31.4,36.3 31.4,36 L51,36 C50.9,36.3 50.7,36.7 50.6,37 L50.6,37 Z M29.9,2 C36.4,2 42.3,4.7 46.5,9 L13.3,9 C17.6,4.7 23.4,2 29.9,2 L29.9,2 Z M11.5,11 L48.3,11 C48.8,11.6 49.3,12.3 49.7,13 L10.1,13 C10.6,12.3 11,11.6 11.5,11 L11.5,11 Z M9,15 L50.9,15 C51.5,16.3 52.1,17.6 52.5,19 L7.4,19 C7.8,17.6 8.3,16.3 9,15 L9,15 Z M6.5,27 L53,27 L53,25 L6.5,25 L6.5,24 L53,24 L53,22 L6.7,22 C6.8,21.7 6.8,21.3 6.9,21 L53,21 C53.3,22.5 53.5,24.1 53.5,25.7 C53.5,28.6 53,31.4 52,34 L31.2,34 C30.4,31.2 27.9,29.2 24.9,29.2 C21.9,29.2 19.4,31.2 18.6,34 L8,34 C7.1,31.8 6.6,29.4 6.5,27 L6.5,27 Z M29.4,35.7 C29.4,38.2 27.4,40.2 24.9,40.2 C22.4,40.2 20.4,38.2 20.4,35.7 C20.4,33.2 22.4,31.2 24.9,31.2 C27.4,31.2 29.4,33.2 29.4,35.7 L29.4,35.7 Z M8.8,36 L18.5,36 C18.5,36.3 18.5,36.7 18.6,37 L9.3,37 C9.1,36.7 9,36.3 8.8,36 L8.8,36 Z M29.9,49.3 C26.3,49.3 22.8,48.5 19.7,47 L40.1,47 C37,48.5 33.6,49.3 29.9,49.3 L29.9,49.3 Z M43,45.3 L43,45 L16.4,45 C14.1,43.4 12.1,41.3 10.5,39 L19.3,39 C20.4,41 22.5,42.3 24.9,42.3 C27.3,42.3 29.4,41 30.5,39 L49.3,39 C47.7,41.5 45.5,43.6 43,45.3 L43,45.3 Z M6.7,6.4 C8.6,6.4 8.6,3.4 6.7,3.4 C4.8,3.4 4.8,6.4 6.7,6.4 L6.7,6.4 Z M6.1,43.8 C4.2,43.8 4.2,46.8 6.1,46.8 C8,46.8 8,43.8 6.1,43.8 L6.1,43.8 Z M8.1,48.8 C6.2,48.8 6.2,51.8 8.1,51.8 C10,51.8 10,48.8 8.1,48.8 L8.1,48.8 Z M17.4,50.6 C15.5,50.6 15.5,53.6 17.4,53.6 C19.3,53.6 19.4,50.6 17.4,50.6 L17.4,50.6 Z M53.8,3.4 C55.7,3.4 55.7,0.4 53.8,0.4 C51.9,0.4 51.9,3.4 53.8,3.4 L53.8,3.4 Z M53.8,9.9 C55.7,9.9 55.7,6.9 53.8,6.9 C51.9,6.9 51.9,9.9 53.8,9.9 L53.8,9.9 Z M56.6,11.2 C54.7,11.2 54.7,14.2 56.6,14.2 C58.5,14.2 58.5,11.2 56.6,11.2 L56.6,11.2 Z M48.1,1.4 C46.1,1.4 46.1,4.4 48.1,4.4 C50,4.4 50,1.4 48.1,1.4 Z M48.6,47.4 C46.7,47.4 46.7,50.4 48.6,50.4 C50.5,50.4 50.5,47.4 48.6,47.4 L48.6,47.4 Z M54.1,51 C52.2,51 52.2,54 54.1,54 C56,54 56,51 54.1,51 L54.1,51 Z M1.5,17 C-0.4,17 -0.4,20 1.5,20 C3.4,20 3.4,17 1.5,17 L1.5,17 Z" id="Shape" fill="#53CCCF" sketch:type="MSShapeGroup"></path>
    </g>
</svg>